/* XPM */
static char * flamp_xpm[] = {
"64 64 215 2",
"  	c None",
". 	c #000000",
"+ 	c #C80015",
"@ 	c #C90016",
"# 	c #C90015",
"$ 	c #C80016",
"% 	c #FF6308",
"& 	c #FF6309",
"* 	c #E85A08",
"= 	c #170900",
"- 	c #5D2403",
"; 	c #FA6108",
"> 	c #FF6208",
", 	c #FF6209",
"' 	c #E75908",
") 	c #160800",
"! 	c #592303",
"~ 	c #F96108",
"{ 	c #FFB414",
"] 	c #FFB514",
"^ 	c #FFB515",
"/ 	c #FF6107",
"( 	c #FFB415",
"_ 	c #020000",
": 	c #0A0300",
"< 	c #FEB415",
"[ 	c #FE6309",
"} 	c #FEB414",
"| 	c #FDB315",
"1 	c #FD6208",
"2 	c #FEB315",
"3 	c #FDB415",
"4 	c #FDB414",
"5 	c #FCB315",
"6 	c #FBB215",
"7 	c #FAB114",
"8 	c #FA6109",
"9 	c #FB6208",
"0 	c #FB6209",
"a 	c #FC6209",
"b 	c #FD6109",
"c 	c #FE6308",
"d 	c #FCB314",
"e 	c #F9B114",
"f 	c #F8B014",
"g 	c #F7AE14",
"h 	c #F5AE14",
"i 	c #F3AC13",
"j 	c #F0AB13",
"k 	c #F15D08",
"l 	c #F35E08",
"m 	c #F45F09",
"n 	c #F66009",
"o 	c #F86009",
"p 	c #F96008",
"q 	c #FC6109",
"r 	c #FD6209",
"s 	c #FE6209",
"t 	c #F6AE14",
"u 	c #F0AA14",
"v 	c #ECA813",
"w 	c #E9A513",
"x 	c #E5A313",
"y 	c #E55908",
"z 	c #EC5B08",
"A 	c #EF5C08",
"B 	c #F25E09",
"C 	c #F65F09",
"D 	c #F96109",
"E 	c #FB6109",
"F 	c #F45E08",
"G 	c #EEA913",
"H 	c #EDA813",
"I 	c #E7A412",
"J 	c #E2A112",
"K 	c #DC9D12",
"L 	c #CA8F10",
"M 	c #BD4906",
"N 	c #C94E07",
"O 	c #D15107",
"P 	c #D95407",
"Q 	c #E05707",
"R 	c #E85907",
"S 	c #EC5C08",
"T 	c #F25E08",
"U 	c #F45F08",
"V 	c #F85F08",
"W 	c #DF9E11",
"X 	c #E8A513",
"Y 	c #E1A012",
"Z 	c #DB9B11",
"` 	c #D59711",
" .	c #B07D0E",
"..	c #FB6108",
"+.	c #F55F09",
"@.	c #E4A212",
"#.	c #E6A313",
"$.	c #DF9E12",
"%.	c #D89911",
"&.	c #D19411",
"*.	c #B27E0E",
"=.	c #F76008",
"-.	c #EBA713",
";.	c #DE9E12",
">.	c #D79811",
",.	c #D09310",
"'.	c #C68C0F",
").	c #9B0010",
"!.	c #A20012",
"~.	c #A80012",
"{.	c #AE0012",
"].	c #B40014",
"^.	c #B80013",
"/.	c #BC0014",
"(.	c #C00015",
"_.	c #C20015",
":.	c #C10014",
"<.	c #FE6208",
"[.	c #FC6107",
"}.	c #F0AA13",
"|.	c #ECA713",
"1.	c #E6A312",
"2.	c #E09F12",
"3.	c #D99A11",
"4.	c #D29511",
"5.	c #CB9011",
"6.	c #B07D0D",
"7.	c #8D000F",
"8.	c #9F0011",
"9.	c #A30011",
"0.	c #AA0012",
"a.	c #AF0012",
"b.	c #B90014",
"c.	c #BC0015",
"d.	c #C00014",
"e.	c #C30015",
"f.	c #F6AF13",
"g.	c #F4AD13",
"h.	c #E5A212",
"i.	c #D19511",
"j.	c #CC9010",
"k.	c #A9770D",
"l.	c #8D000E",
"m.	c #A40011",
"n.	c #AE0013",
"o.	c #B40013",
"p.	c #BF0015",
"q.	c #C20014",
"r.	c #F7AF13",
"s.	c #FAB115",
"t.	c #F7B014",
"u.	c #F2AB14",
"v.	c #EEA914",
"w.	c #E9A613",
"x.	c #E5A213",
"y.	c #D99A12",
"z.	c #D49611",
"A.	c #BE860F",
"B.	c #9B0011",
"C.	c #A50012",
"D.	c #AA0013",
"E.	c #B30014",
"F.	c #B70013",
"G.	c #BA0014",
"H.	c #BE0015",
"I.	c #C40016",
"J.	c #FCB214",
"K.	c #FBB315",
"L.	c #F3AD14",
"M.	c #E4A213",
"N.	c #B27D0D",
"O.	c #94000F",
"P.	c #AF0013",
"Q.	c #B20013",
"R.	c #B60014",
"S.	c #C50015",
"T.	c #C60015",
"U.	c #FDB314",
"V.	c #FBB214",
"W.	c #F9B014",
"X.	c #F7AF14",
"Y.	c #F1AB13",
"Z.	c #980010",
"`.	c #A60012",
" +	c #B30013",
".+	c #B70014",
"++	c #BD0014",
"@+	c #C40015",
"#+	c #C70016",
"$+	c #C70015",
"%+	c #FEB314",
"&+	c #AB0013",
"*+	c #A50011",
"=+	c #9E0011",
"-+	c #970010",
";+	c #93000F",
">+	c #930010",
",+	c #9E0010",
"'+	c #B90013",
")+	c #BD0015",
"!+	c #C50016",
"~+	c #C60016",
"{+	c #B00013",
"]+	c #AB0012",
"^+	c #AD0013",
"/+	c #B50014",
"(+	c #BE0014",
"_+	c #BB0014",
":+	c #B80014",
"<+	c #B50013",
"[+	c #B60013",
"}+	c #FBB513",
"|+	c #FDB515",
"1+	c #FEB614",
"2+	c #C10015",
"        . . . . . . . . . . . . . . . . . . . . . . . . . . . . . . . . . . . . . . . . . . . . . . . . . . . . . . . . . . .   ",
"          . . . . . . . . . . . . . . . . . . . . . . . . . . . . . . . . . . . . . . . . . . . . . . . . . . . . . . . . .     ",
"            . . . . . . . . . . . . . . . . . . . . . . . . . . . . . . . . . . . . . . . . . . . . . . . . . . . . . . .       ",
"              . . . . . . . . . . . . . . . . . . . . . . . . . . . . . . . . . . . . . . . . . . . . . . . . . . . . .         ",
"                . . . . . . . . . . . . . . . . . . . . . . . . . . . . . . . . . . . . . . . . . . . . . . . . . . .           ",
"                  . . . . . . . . . . . . . . . . . . . . . . . . . . . . . . . . . . . . . . . . . . . . . . . . .             ",
"                    . . . . . . . .                           . . . . . .                           . . . . . . .               ",
"                      . . . . . . . .                         . . . . . .                       . . . . . . . .                 ",
"                        . . . . . . . .                       . . . . . .                     . . . . . . . .                   ",
"                          . . . . . . . .                     . . . . . .                     . . . . . . .                     ",
"                            . . . . . . . .                   . . . . . .                 . . . . . . . .                       ",
"                              . . . . . . . .                 . . . . . .               . . . . . . . .                         ",
"                                . . . . . . . .               . . . . . .             . . . . . . . .                           ",
"                                  . . . . . . . .             . . . . . .           . . . . . . . .                             ",
"                                    . . . . . . . .           . . . . . .         . . . . . . . .                               ",
"                                      . . . . . . . .         . . . . . .       . . . . . . . .                                 ",
"                                        . . . . . . . .       . . . . . .     . . . . . . . .                                   ",
"                                          . . . . . . . .     . . . . . .   . . . . . . . .                                     ",
"                                            . . . . . . . .   . . . . . . . . . . . . . .                                       ",
"                                              . . . . . . . . . . . . . . . . . . . . .                                         ",
"                                                . . . . . . . . . . . . . . . . . . .                                           ",
"                                                  . . . . . . . . . . . . . . . . .                                             ",
"                                                    . . . . . . . . . . . . . . .                                               ",
"                                                      . . . . . . . . . . . . .                                                 ",
"                                                        . . . . . . . . . . .                                                   ",
"                                                          . . . . . . . . .                                                     ",
"                                                            . . . . . . .                                                       ",
"                                                              . . . . . .                                                       ",
"                                                              . . . . . .                                                       ",
"                                                              . . . . . .                                                       ",
"                                                              . . . . . .                                                       ",
"                                                              . . . . . .                                                       ",
"                                                              . . . . . .               + @ @ @ @ @ #                           ",
"                                                              . . . . . .             @ @ + @ @ @ @ $ @ +                       ",
"                                                              . . . . . .           # @ @ @ @ @ @ @ @ + @                       ",
"                                                      % % & * = . . . . - ; &       + @ # @ @ @ @ @ @ + @                       ",
"                                                > & , & & & ' ) . . . . ! ~ % ,       + @ $ # @ $ @ @ @                         ",
"                                      { {         > & > & & ' ) . . . . ! ~ , & &         # @ @ @ + +                           ",
"                                  ] ^ ] ] {         / & , & ' ) . . . . ! ~ & & % , >                                           ",
"                              ] ^ ^ ] ^ ( ^ (         > % & * = . . . . - ; & > & & & % > > , > > % > > ,                       ",
"                            { ^ ] ^ ^ ^ ^ ^ ( {               _ . . . . :     & , % , , & & % & & , & & % >                     ",
"                          ( ] ^ ^ < ^ ^ ^ ^ ] ^ {             . . . . . .           % & & % , & & & [ & & , %                   ",
"                        ^ ] ^ ^ ^ ^ < < } < |                 . . . . . .               1 [ [ [ [ [ & & , % , %                 ",
"                      } < 2 < < 3 4 5 6 6 7                   . . . . . .                   8 9 0 a a b [ [ [ c 1               ",
"                        d d 6 e f g h i j                     . . . . . .                     k l m n o p 8 q a r               ",
"    > > & , > [ s 1       i t i u v w x                       . . . . . .                       y * z A B C o D E ;             ",
"  , & & > & [ r c q E F     G H I J K L                       . . . . . .                       M N O P Q R S T U V             ",
"  & > & & & [ [ q q ; o     W X Y Z `  .                      . . . . . .                                                       ",
"  > & & & & [ [ r ..; +.    @.#.$.%.&.*.                      . . . . . .                                                       ",
"    , % & s [ [ 1 E =.      -.x ;.>.,.'.                      . . . . . .                       ).!.~.{.].^./.(._.:.            ",
"        > % <.r [.        }.|.1.2.3.4.5.6.                    . . . . . .                     7.8.9.0.a.].b.c.d.e.              ",
"                      f f.g.u -.h.$.3.i.j.k.                  . . . . . .                   l.8.m.0.n.o.^./.p.q.q.              ",
"                      r.s.t.h u.v.w.x.;.y.z.A.                . . . . . .                 B.C.D.a.E.F.G.H.(.q.I.                ",
"                        J.K.s.f t L.u v w M.$.3.N.            . . . . . .             O.0.P.Q.R.G.c.p._.e.S.T.                  ",
"                          J.U.| 5 V.W.X.g.Y.G w                                 Z.`.n. +.+G.++d.q.@+S.T.#+$+                    ",
"                              %+< < U.d 6 W.t           {.&+*+=+-+;+>+Z.,+`.D.n.Q.R.'+)+p.:.@+!+~+$+$ $ $+                      ",
"                                ( ] < < 3 6           b.R. +{+n.&+]+]+]+^+P.Q./+b./.(+(+++                                      ",
"                                    ( } <           d.p.++_+:+F.o.<+<+<+[+:+G./.H.G.        }+|+1+                              ",
"                                                  T.!+e._._.2+(.p.H.H.H.(.(.2+_.      W.5 3 < } ^ } ^ {                         ",
"                                                $+~+$+#+~+#+~+!+!+!+!+!+!+~+~+S.    J.< } < ^ ^ < ^ { ^ (                       ",
"                                                                  #+#+              < ^ ^ ^ ^ ^ ^ ^ ^ ^ ] ]                     ",
"                                                                                    { ^ ] ( ^ ^ ^ { ^ ^ {                       ",
"                                                                                      { ( ^ ^ ^ ^ ^ { {                         ",
"                                                                                                                                "};
