/* XPM */
static char *flmsngr_64[] = {
/* columns rows colors chars-per-pixel */
"63 64 94 2 ",
"   c #020202",
".  c #0D0D0D",
"X  c #110F0D",
"o  c #14120E",
"O  c #19160E",
"+  c #131313",
"@  c #181710",
"#  c #1D1C13",
"$  c #1A1A1A",
"%  c #201F14",
"&  c #232115",
"*  c #26241B",
"=  c #29271E",
"-  c #2C2A1E",
";  c #322E1E",
":  c #232323",
">  c #2C2A20",
",  c #2C2C2C",
"<  c #312E22",
"1  c #363225",
"2  c #3A3525",
"3  c #3D3827",
"4  c #3C3728",
"5  c #333333",
"6  c #3B3B3B",
"7  c #433D24",
"8  c #47402C",
"9  c #4C442C",
"0  c #534B2A",
"q  c #5B512E",
"w  c #635828",
"e  c #6A5D2A",
"r  c #605532",
"t  c #685C31",
"y  c #6E6129",
"u  c #75662A",
"i  c #7B6B2B",
"p  c #746531",
"a  c #7C6D32",
"s  c #444444",
"d  c #4B4B4B",
"f  c #535353",
"g  c #5C5C5C",
"h  c #646464",
"j  c #6B6B6B",
"k  c #727272",
"l  c #7B7B7B",
"z  c #86752B",
"x  c #88772E",
"c  c #89782A",
"v  c #94812E",
"b  c #9D882E",
"n  c #9B8731",
"m  c #9E8932",
"M  c #A7902B",
"N  c #AD932F",
"B  c #A18C31",
"V  c #AB9433",
"C  c #BCA22E",
"Z  c #BCA231",
"A  c #C4AA2F",
"S  c #C8AD2F",
"D  c #CEB22F",
"F  c #D6B92F",
"G  c #DBBD2F",
"H  c #C4A631",
"J  c #CAAD31",
"K  c #CDB130",
"L  c #D6B731",
"P  c #D7BA31",
"I  c #DABB31",
"U  c #E6C62F",
"Y  c #E4C331",
"T  c #ECCA30",
"R  c #F4CE31",
"E  c #F7D330",
"W  c #F9D530",
"Q  c #848484",
"!  c #8B8B8B",
"~  c #939393",
"^  c #9C9C9C",
"/  c #A4A4A4",
"(  c #ABABAB",
")  c #B3B3B3",
"_  c #BBBBBB",
"`  c #C4C4C4",
"'  c #CCCCCC",
"]  c #D3D3D3",
"[  c #DBDBDB",
"{  c #E4E4E4",
"}  c #EBEBEB",
"|  c #F3F3F3",
" . c #FDFDFD",
".. c None",
/* pixels */
"..............................................................................................................................",
"................................... . . . . . . . . . . . . . . . . . . . . . . . . . . . . ..................................",
"................................... . . . . . . . . . . . . . . . . . . . . . . . . . . . . ..................................",
"..................................... . . . . . X . . . . . . . . . . X . X . . . . . . . ....................................",
"....................................... . X O ..............@ @ O ..............O X X O ......................................",
"......................................O O O # ..............# # # ..............# O O & ......................................",
"........................................# % * < ............- * = ............< * * - ........................................",
"..........................................< < 7 M ..........7 e w ..........z u 3 3 ..........................................",
"..........................................e e A G N ......F C T v ........T U S 0 u ......E E ................................",
"..........................................T T W P p ....E E W E m H ..E E E W K a ..R E E E W ................................",
"........................................E E W W P a Z W E W E E V L W E E E W Y F E W W E E W ................................",
"....................................E E E E E W T P R W W E E E P R W W E R E E W E W E W E E ................................",
"..................................E E E ....E E W E E P P W W E W W R L m A W W W W W E E R ..................................",
"............................................E E W T B e p Y W W E T n t r H W E W R W R ......................................",
"............................................E W W J 0 8 9 v E F b i 9 9 r P W W R ............................................",
"......................................................4 1 0 z 0 4 3 4 4 ..W E ................................................",
"......................................................7 = - > > - - - 7 ......................................................",
"........................................................& # # # # % & ........................................................",
"..........................................................# O @ @ # ..........................................................",
"............................................................O @ @ ............................................................",
"............................................................& # % ............................................................",
"............................................................> > - ............................................................",
"................................E ............E ............y i 9 ..........E ................................................",
"................................E E E ........E E E ........v R D Y ........E E E ............................................",
"................................E E E E R ....E E E E E ..A B E W E E R ....E E W E ..........................................",
"................................W E E E E E R E W E E E E P V E W E E E E R E W E E E E ......................................",
"................................E E W E E E E E W E E E W E Y E E E E W E E E E E E E E E ....................................",
"....................................E E W E E E E E R E E E E E E R R E W E E W E ......E E ..................................",
"........................................E E E E E E ....R E E E W R ....E E E E E ............................................",
"............................................E E E E ........x A R ..........E E E ............................................",
"............................................................3 7 i ............................................................",
"............................................................- - - ............................................................",
"............................................................# # # ............................................................",
"............................................................O O O ............................................................",
"............................................................. . . ............................................................",
"............................................................. . . ............................................................",
"............................................................... ..............................................................",
"..............................................................................................................................",
"~ _ _ _ _ ( _ ( ..^ _ _ _ _ _ _ _ ...._ _ _ _ _ _ _ ...._ _ _ _ _ _ _ ...._ _ _ _ _ _ _ ...._ _ _ _ _ _ _ ~ .._ _ ` _ _ _ _ ^ ",
"]  .| ] [ |  .} ..' |  . .|  .| } ..`  . .| | |  .| ^ _  .| { } }  .| _ ^ | | } } } }  .` ..| | |  .| |  .' ..|  .|  . .|  .[ ",
"[  .l , , k | | ..' l ! ~ f ` f ' ..`  ./ 6 f g [  .^ (  ._ 5 d s _  ._ /  ./ 6 5 5 Q  .` ..| _ d ' k k  .] ..| ' d [ ( g } [ ",
"[ ' $ ^ ( $ ` | ..] l s s . h , [ ..`  .Q @ l ~ }  .^ _  .^ @ ! $ Q  .( ^  .{ ^ @ l [  .` .. .} d 5 : _  .' ..| _ @ ] ~ , } [ ",
"[ ` $ _ / $ _ | ..] ) . : d . f | ..`  .Q . g l |  .^ _  ./ . , $ '  ._ ^  . .] $ (  . ._ ..|  .` @ k  . .' ..| _ $ ] ! , } ] ",
"[ } s , @ $ ' | ..] ] @ d /   l | ..`  .Q @ l Q [  .^ (  ./ $ / $ ~  .( /  . .] $ _  . .` .. . .{ : ^  . .' ..| ] : g 6 f | [ ",
"[  .{ ^ ~ Q ' } ..] | ~ _ { Q ' | ..`  .` l l l {  .^ _  .] ~ } ( (  .( ^  . .} ~ [  . .` .. . .} ~ '  . .' ..}  ._ j l ]  .[ ",
"' | | |  .| | { ..` | | | | | | { .._ } } | | | } } ~ ( | | | | | | | ( ^ } | | | | | | _ ..{ | | | | } | ` ..{ } | | | | } ' ",
"..............................................................................................................................",
"..........` ] ] ] ] ] ] ( .._ ' ' ] ] ' ' ) .._ ' ' ] ' ' ' _ .._ ' ' ' ' ' ' _ ..( ' ` ' ' ' ` _ ../ ' ' ' ' ' ' _ ..........",
"..........|  . .{ }  . .] ..|  .| ' ]  . .[ ..{  .{ ] [ |  .{ ..{  .{ ] ] {  .{ ..[  .| ` _ [  .} ..]  .' { | ' } | ..........",
"..........|  .' , g  . .] ..}  .h s 6 ^  .[ ..}  .f : , j | { ..{  .h : d ~  .} ..[  .j , s d { } ..[ | 6 Q [ : _ | ..........",
"..........|  .l , : '  .] ..} | s 5 d _  .[ ..}  .s h ( $ ' { ..{  .f , Q ]  .} ..{ [ $ ^ ( l [ | ..] | 5 , d . _ | ..........",
"..........| | 5 d : Q  .] ..| | / k , f  .[ ..}  .s j _ $ ` { ..{  .f , l ]  .{ ..[ [ $ ^ ! @ ( | ..] | 5 d l . ( | ..........",
"..........| _ @ g 6 6 | ] ..} | d f 5 j  .[ ..}  .s : 5 s } { ..{  .f g  . . .} ..[  .j , d 5 ' } ..] | 6 ! [ : _ | ..........",
"..........| ] _  .[ ( | [ ..}  .[ / _ {  .[ ..}  .` ( _ }  .{ ..{  .' '  . . .} ..[  .| ` _ {  .} ..]  .] {  .' } | ..........",
"..........[ { { { { } { _ ..[ { } } } } } ` ..] } } } } { } ' ..' } } } { } { ] ..' } } } } } } [ ..` } } } } } } [ ..........",
"..............................................................................................................................",
"..................( { { { { { { [ ../ { { { [ { { [ ~ ^ [ { [ { { { [ ^ ~ [ { { { { { [ / ..[ { { { { { { ( ..................",
"..................`  .] _ ` ' |  .^ _  .[ '  .' [  ./ (  . .[ _ '  . .( /  .] [  .[ ]  ._ ^  .} ` _ '  . .` ..................",
"..................`  .~ f $ : [  .^ _  ./ , ! : _  ./ _  .' , 6 , _  ._ /  .k s } f k  ._ ^  ./ @ f : /  .` ..................",
"..................`  . .( $ ^  .| ^ _  .| f   j  . ./ _  .k 5 } ` {  .( /  ._ : / , _  ._ ^  ./ . h : (  .` ..................",
"..................`  ._ : Q |  . .^ _  .} s . f |  ./ _  .l 5 { / _  .( (  .} s 5 6 }  ._ ^  ./ @ l , l  .` ..................",
"..................` } s @ d g ]  .~ _  .! 5 / : /  ./ (  .' 5 5 : _  .( /  . .! . Q  . ._ ^  .( + s , !  .` ..................",
"..................`  .] ' ` ` |  .^ _  .] [  .] [  ./ _  . .{ _ ]  . ._ /  . .| ' }  . ._ ~ | } ' ' ] |  .` ..................",
"................../ ] ] ] ] ] ] ' l ^ ' ] ] ] ] ] ' Q ! ' ] ] ] ] ] ' ~ ! ' ' ] ] ] ] ] ^ l ' ] ] ] ] ] ] / .................."
};
